<svg xmlns="http://www.w3.org/2000/svg" viewBox="0 0 160 220" width="160" height="220" role="img" aria-label="Weißes Licht oben, darunter rot-weiß-rot, grünes Licht links, rotes rechts">
<!-- Generated figure, derived from SeeStrO 1972 Regel 27 Buchstabe b Ziffer iii; layout per SeeStrO 1972 Anlage I §2. Original artwork; project licence (CC BY-SA 4.0), not a reproduction of any source figure. gen:diagram.v1 -->
<title>Weißes Licht oben, darunter rot-weiß-rot, grünes Licht links, rotes rechts</title>
<rect width="160" height="220" fill="#0d1626"/>
<rect x="0" y="196" width="160" height="24" fill="#08101c"/>
<path d="M20,196 L30,172 L130,172 L140,196 Z" fill="#1c2b45" stroke="#44598a" stroke-width="1.5"/>
<line x1="80" y1="172" x2="80" y2="196" stroke="#44598a" stroke-width="1.5"/>
<rect x="79" y="40" width="2" height="138" fill="#44598a"/>
<circle cx="80" cy="50" r="15.75" fill="#fdfdf2" opacity="0.22"/><circle cx="80" cy="50" r="10.875" fill="#fdfdf2" opacity="0.35"/><circle cx="80" cy="50" r="7.5" fill="#fdfdf2" stroke="#00000055" stroke-width="0.75"/>
<circle cx="80" cy="72" r="15.75" fill="#ef4444" opacity="0.22"/><circle cx="80" cy="72" r="10.875" fill="#ef4444" opacity="0.35"/><circle cx="80" cy="72" r="7.5" fill="#ef4444" stroke="#00000055" stroke-width="0.75"/>
<circle cx="80" cy="94" r="15.75" fill="#fdfdf2" opacity="0.22"/><circle cx="80" cy="94" r="10.875" fill="#fdfdf2" opacity="0.35"/><circle cx="80" cy="94" r="7.5" fill="#fdfdf2" stroke="#00000055" stroke-width="0.75"/>
<circle cx="80" cy="116" r="15.75" fill="#ef4444" opacity="0.22"/><circle cx="80" cy="116" r="10.875" fill="#ef4444" opacity="0.35"/><circle cx="80" cy="116" r="7.5" fill="#ef4444" stroke="#00000055" stroke-width="0.75"/>
<circle cx="36" cy="165" r="15.75" fill="#22c55e" opacity="0.22"/><circle cx="36" cy="165" r="10.875" fill="#22c55e" opacity="0.35"/><circle cx="36" cy="165" r="7.5" fill="#22c55e" stroke="#00000055" stroke-width="0.75"/>
<circle cx="124" cy="165" r="15.75" fill="#ef4444" opacity="0.22"/><circle cx="124" cy="165" r="10.875" fill="#ef4444" opacity="0.35"/><circle cx="124" cy="165" r="7.5" fill="#ef4444" stroke="#00000055" stroke-width="0.75"/>
</svg>
